<svg width="512" height="512" viewBox="0 0 512 512" fill="none" xmlns="http://www.w3.org/2000/svg">
<path d="M421.938 90.068C344.672 12.807 225.813 1.12599 135.443 55.1L137 46.443C137.973 40.8854 136.706 35.1686 133.475 30.5433C130.244 25.918 125.312 22.7607 119.759 21.7622C114.206 20.7637 108.483 22.0053 103.843 25.2153C99.2035 28.4254 96.0238 33.3425 95.0001 38.891L83.6151 102.177C82.7091 107.224 83.6506 112.429 86.2673 116.839C88.884 121.249 93.001 124.569 97.8651 126.193L153.165 144.63C155.823 145.516 158.629 145.871 161.424 145.672C164.219 145.474 166.947 144.728 169.454 143.475C171.96 142.222 174.195 140.488 176.031 138.372C177.867 136.256 179.268 133.798 180.155 131.14C181.041 128.483 181.395 125.676 181.197 122.881C180.999 120.087 180.252 117.358 179 114.852C177.747 112.346 176.013 110.111 173.897 108.275C171.78 106.439 169.323 105.037 166.665 104.151L147.545 97.777C222.235 46.639 325.623 54.098 391.769 120.234C466.623 195.094 466.623 316.906 391.769 391.766C316.894 466.63 195.102 466.63 120.227 391.766C94.2368 365.687 76.2669 332.704 68.4464 296.726C60.626 260.747 63.2828 223.281 76.1021 188.766C77.0915 186.139 77.5525 183.342 77.4589 180.536C77.3652 177.73 76.7187 174.97 75.5563 172.415C74.394 169.859 72.7387 167.558 70.6853 165.644C68.6319 163.729 66.2208 162.239 63.5903 161.258C60.9598 160.277 58.1615 159.825 55.356 159.928C52.5504 160.031 49.7927 160.686 47.241 161.857C44.6892 163.027 42.3937 164.69 40.4858 166.75C38.578 168.809 37.0954 171.225 36.1231 173.859C17.4184 224.054 16.4442 279.136 33.3623 329.961C50.2803 380.786 84.0729 424.296 129.129 453.267C174.186 482.237 227.796 494.926 281.059 489.226C334.321 483.526 384.032 459.781 421.938 421.932C513.427 330.438 513.427 181.563 421.938 90.068Z" fill="black"></path>
<path d="M192 362.667C197.658 362.667 203.084 360.419 207.085 356.418C211.086 352.417 213.333 346.991 213.333 341.333V192C213.332 188.225 212.33 184.517 210.428 181.256C208.526 177.995 205.793 175.297 202.508 173.437C199.223 171.577 195.503 170.622 191.728 170.67C187.953 170.718 184.258 171.766 181.021 173.708L127.688 205.708C122.854 208.628 119.376 213.346 118.015 218.827C116.654 224.308 117.522 230.105 120.428 234.947C123.335 239.789 128.042 243.281 133.519 244.658C138.996 246.035 144.796 245.184 149.646 242.292L170.667 229.677V341.333C170.667 346.991 172.915 352.417 176.915 356.418C180.916 360.419 186.342 362.667 192 362.667V362.667Z" fill="black"></path>
<path d="M309.333 362.667C351.198 362.667 384 320.5 384 266.667C384 212.834 351.2 170.667 309.333 170.667C267.466 170.667 234.667 212.833 234.667 266.667C234.667 320.501 267.469 362.667 309.333 362.667ZM309.333 213.333C324.469 213.333 341.333 235.233 341.333 266.667C341.333 298.101 324.469 320 309.333 320C294.197 320 277.333 298.1 277.333 266.667C277.333 235.234 294.2 213.333 309.333 213.333V213.333Z" fill="black"></path>
</svg>

<!-- forward -->

<svg width="512" height="512" viewBox="0 0 512 512" fill="none" xmlns="http://www.w3.org/2000/svg">
<path d="M475.875 173.859C474.924 171.198 473.453 168.752 471.549 166.664C469.645 164.576 467.344 162.887 464.782 161.695C462.219 160.503 459.445 159.833 456.621 159.722C453.797 159.611 450.98 160.063 448.332 161.05C445.684 162.038 443.258 163.542 441.196 165.474C439.134 167.407 437.477 169.73 436.32 172.309C435.164 174.887 434.531 177.67 434.459 180.495C434.387 183.32 434.877 186.132 435.9 188.766C448.719 223.281 451.376 260.747 443.556 296.726C435.735 332.704 417.765 365.687 391.775 391.766C316.9 466.62 195.087 466.62 120.233 391.766C45.3791 316.912 45.3791 195.094 120.233 120.234C186.245 54.219 289.392 46.648 364.375 97.8L345.333 104.147C342.675 105.033 340.218 106.435 338.102 108.271C335.985 110.107 334.251 112.342 332.999 114.848C331.746 117.354 330.999 120.083 330.801 122.877C330.603 125.672 330.957 128.479 331.844 131.136C332.73 133.794 334.131 136.252 335.967 138.368C337.803 140.484 340.038 142.218 342.545 143.471C345.051 144.724 347.779 145.47 350.574 145.668C353.369 145.867 356.175 145.512 358.833 144.626L414.133 126.189C418.997 124.566 423.114 121.245 425.731 116.835C428.348 112.425 429.289 107.22 428.383 102.173L417 38.891C415.976 33.3425 412.797 28.4254 408.157 25.2153C403.517 22.0053 397.794 20.7637 392.241 21.7622C386.688 22.7607 381.757 25.918 378.525 30.5433C375.294 35.1686 374.027 40.8854 375 46.443L376.534 54.969C286.393 1.085 167.392 12.725 90.0631 90.068C-1.42694 181.563 -1.42694 330.438 90.0631 421.932C127.958 459.818 177.675 483.595 230.954 489.314C284.233 495.033 337.864 482.348 382.936 453.367C428.007 424.387 461.805 380.856 478.712 330.008C495.62 279.161 494.618 224.059 475.875 173.859V173.859Z" fill="black"></path>
<path d="M192 362.667C197.658 362.667 203.084 360.419 207.085 356.418C211.086 352.417 213.333 346.991 213.333 341.333V192C213.332 188.225 212.33 184.517 210.428 181.256C208.526 177.995 205.793 175.297 202.508 173.437C199.223 171.577 195.503 170.622 191.728 170.67C187.953 170.718 184.258 171.766 181.021 173.708L127.688 205.708C122.854 208.628 119.376 213.346 118.015 218.827C116.654 224.308 117.522 230.105 120.428 234.947C123.335 239.789 128.042 243.281 133.519 244.658C138.996 246.035 144.796 245.184 149.646 242.292L170.667 229.677V341.333C170.667 346.991 172.915 352.417 176.915 356.418C180.916 360.419 186.342 362.667 192 362.667V362.667Z" fill="black"></path>
<path d="M309.333 170.667C267.469 170.667 234.667 212.833 234.667 266.667C234.667 320.501 267.467 362.667 309.333 362.667C351.199 362.667 384 320.5 384 266.667C384 212.834 351.2 170.667 309.333 170.667ZM309.333 320C294.198 320 277.333 298.1 277.333 266.667C277.333 235.234 294.198 213.333 309.333 213.333C324.468 213.333 341.333 235.233 341.333 266.667C341.333 298.101 324.469 320 309.333 320Z" fill="black"></path>
</svg>


<!--  -->

<svg version="1.1" id="Layer_1" xmlns="http://www.w3.org/2000/svg" xmlns:xlink="http://www.w3.org/1999/xlink" x="0px" y="0px" width="92px" height="92px" viewBox="0 0 92 92" enable-background="new 0 0 92 92" xml:space="preserve">
<path id="XMLID_659_" d="M59.5,42.9l-42-33c-1.2-0.9-2.8-1.1-4.2-0.5C11.9,10.1,11,11.5,11,13v66c0,1.5,0.9,2.9,2.3,3.6
	c0.6,0.3,1.2,0.4,1.7,0.4c0.9,0,1.8-0.3,2.5-0.9l42-33c1-0.8,1.5-1.9,1.5-3.1C61,44.8,60.4,43.6,59.5,42.9z M19,70.8V21.2L50.5,46
	L19,70.8z M81,14.6v63.5c0,2.5-2,4.5-4.5,4.5s-4.5-2-4.5-4.5V14.6c0-2.5,2-4.5,4.5-4.5S81,12.1,81,14.6z"></path>
</svg>